<svg width="12" height="12" viewBox="0 0 12 12" fill="none" xmlns="http://www.w3.org/2000/svg">
<circle opacity="0.6" cx="6" cy="6" r="6" fill="white"/>
<g opacity="0.6">
<path d="M6 9.15626C5.94445 9.15626 5.89236 9.14751 5.84375 9.13001C5.79514 9.11251 5.75 9.08306 5.70834 9.04167L2.95834 6.29167C2.875 6.20834 2.83334 6.10945 2.83334 5.995C2.83334 5.88056 2.875 5.78153 2.95834 5.69792C3.04167 5.61459 3.13889 5.57292 3.25 5.57292C3.36111 5.57292 3.45834 5.61459 3.54167 5.69792L5.58334 7.73959V3.07292C5.58334 2.95487 5.62334 2.85764 5.70334 2.78126C5.78334 2.70487 5.88222 2.66667 6 2.66667C6.11806 2.66667 6.21709 2.70653 6.29709 2.78625C6.37709 2.86598 6.41695 2.96501 6.41667 3.08334V7.73959L8.45834 5.69792C8.54167 5.61459 8.63889 5.57292 8.75 5.57292C8.86111 5.57292 8.95834 5.61459 9.04167 5.69792C9.125 5.78126 9.16667 5.88028 9.16667 5.995C9.16667 6.10973 9.125 6.20862 9.04167 6.29167L6.29167 9.04167C6.25 9.08334 6.20486 9.11292 6.15625 9.13042C6.10764 9.14792 6.05556 9.15653 6 9.15626Z" fill="black"/>
</g>
</svg>
