<svg width="27" height="10" viewBox="0 0 27 10" fill="none" xmlns="http://www.w3.org/2000/svg">
<path d="M3.56516 9H0.471413V0.272727H3.59073C4.46857 0.272727 5.22425 0.447443 5.85778 0.796875C6.4913 1.14347 6.97852 1.64205 7.31943 2.29261C7.66318 2.94318 7.83505 3.72159 7.83505 4.62784C7.83505 5.53693 7.66318 6.31818 7.31943 6.97159C6.97852 7.625 6.48846 8.12642 5.84925 8.47585C5.21289 8.82528 4.45153 9 3.56516 9ZM2.31658 7.41903H3.48846C4.03391 7.41903 4.49272 7.32244 4.86488 7.12926C5.23988 6.93324 5.52113 6.63068 5.70863 6.22159C5.89897 5.80966 5.99414 5.27841 5.99414 4.62784C5.99414 3.98295 5.89897 3.45597 5.70863 3.04688C5.52113 2.63778 5.2413 2.33665 4.86914 2.14347C4.49698 1.95028 4.03817 1.85369 3.49272 1.85369H2.31658V7.41903Z" fill="#110707"/>
<path d="M13.9363 2.78267C13.9022 2.43892 13.7559 2.17187 13.4973 1.98153C13.2388 1.79119 12.888 1.69602 12.4448 1.69602C12.1436 1.69602 11.8894 1.73864 11.682 1.82386C11.4746 1.90625 11.3155 2.02131 11.2047 2.16903C11.0968 2.31676 11.0428 2.48438 11.0428 2.67188C11.0371 2.82812 11.0698 2.96449 11.1408 3.08097C11.2147 3.19744 11.3155 3.2983 11.4434 3.38352C11.5712 3.46591 11.7189 3.53835 11.8865 3.60085C12.0542 3.66051 12.2331 3.71165 12.4235 3.75426L13.2076 3.94176C13.5882 4.02699 13.9377 4.14062 14.2559 4.28267C14.574 4.42472 14.8496 4.59943 15.0826 4.80682C15.3155 5.0142 15.4959 5.25852 15.6238 5.53977C15.7544 5.82102 15.8212 6.14347 15.824 6.5071C15.8212 7.04119 15.6848 7.50426 15.415 7.89631C15.1479 8.28551 14.7615 8.58807 14.2559 8.80398C13.753 9.01705 13.1465 9.12358 12.4363 9.12358C11.7317 9.12358 11.1181 9.01562 10.5953 8.79972C10.0755 8.58381 9.66921 8.2642 9.3766 7.84091C9.08683 7.41477 8.93484 6.88778 8.92063 6.25994H10.7061C10.726 6.55256 10.8098 6.79687 10.9576 6.9929C11.1081 7.18608 11.3084 7.33239 11.5584 7.43182C11.8113 7.52841 12.0968 7.5767 12.415 7.5767C12.7275 7.5767 12.9988 7.53125 13.2289 7.44034C13.4618 7.34943 13.6422 7.22301 13.7701 7.06108C13.8979 6.89915 13.9618 6.71307 13.9618 6.50284C13.9618 6.30682 13.9036 6.14205 13.7871 6.00852C13.6735 5.875 13.5059 5.76136 13.2843 5.66761C13.0655 5.57386 12.7971 5.48864 12.4789 5.41193L11.5286 5.1733C10.7928 4.99432 10.2118 4.71449 9.78569 4.33381C9.35955 3.95312 9.1479 3.44034 9.15075 2.79545C9.1479 2.26705 9.28853 1.8054 9.57262 1.41051C9.85955 1.01562 10.253 0.707386 10.753 0.485795C11.253 0.264204 11.8212 0.153409 12.4576 0.153409C13.1053 0.153409 13.6706 0.264204 14.1536 0.485795C14.6394 0.707386 15.0172 1.01562 15.2871 1.41051C15.557 1.8054 15.6962 2.26278 15.7047 2.78267H13.9363Z" fill="#D09AF7"/>
<path d="M17.0652 0.272727H19.3407L21.7441 6.13636H21.8464L24.2498 0.272727H26.5254V9H24.7356V3.3196H24.6632L22.4047 8.95739H21.1859L18.9274 3.2983H18.8549V9H17.0652V0.272727Z" fill="#5A01B3"/>
</svg>
