<svg width="14" height="14" viewBox="0 0 14 14" fill="none" xmlns="http://www.w3.org/2000/svg">
<path opacity="0.6" d="M8.848 6.68251L7.576 5.27137L4 9.2319V10.6564H5.26L8.848 6.68251ZM9.91 5.51099C10.03 5.37787 10.03 5.17152 9.91 5.03839L9.064 4.09985C8.944 3.96672 8.758 3.96672 8.638 4.09985L8.002 4.80542L9.274 6.21657L9.91 5.51099Z" fill="black"/>
<path opacity="0.6" d="M12.4444 1.33127H9.19333C8.86667 0.559135 8.01111 0 7 0C5.98889 0 5.13333 0.559135 4.80667 1.33127H1.55556C0.7 1.33127 0 1.93035 0 2.66255V11.9815C0 12.7137 0.7 13.3127 1.55556 13.3127H12.4444C13.3 13.3127 14 12.7137 14 11.9815V2.66255C14 1.93035 13.3 1.33127 12.4444 1.33127ZM7 1.16486C7.31889 1.16486 7.58333 1.39118 7.58333 1.66409C7.58333 1.937 7.31889 2.16332 7 2.16332C6.68111 2.16332 6.41667 1.937 6.41667 1.66409C6.41667 1.39118 6.68111 1.16486 7 1.16486ZM12.4444 11.9815H1.55556V2.66255H12.4444V11.9815Z" fill="black"/>
</svg>
