<svg width="18" height="18" viewBox="0 0 18 18" fill="none" xmlns="http://www.w3.org/2000/svg">
<g opacity="0.6" clip-path="url(#clip0_9_49)">
<path d="M9.75 0.75L9.75075 3.0465C11.0724 3.21359 12.3009 3.81557 13.2429 4.75764C14.1848 5.6997 14.7866 6.92832 14.9535 8.25H17.25V9.75L14.9535 9.75075C14.7864 11.0723 14.1846 12.3007 13.2427 13.2427C12.3007 14.1846 11.0723 14.7864 9.75075 14.9535L9.75 17.25H8.25V14.9535C6.92832 14.7866 5.6997 14.1848 4.75764 13.2429C3.81557 12.3009 3.21359 11.0724 3.0465 9.75075L0.75 9.75V8.25H3.0465C3.21344 6.92821 3.81535 5.6995 4.75743 4.75743C5.6995 3.81535 6.92821 3.21344 8.25 3.0465V0.75H9.75ZM9 4.5C7.80653 4.5 6.66193 4.97411 5.81802 5.81802C4.97411 6.66193 4.5 7.80653 4.5 9C4.5 10.1935 4.97411 11.3381 5.81802 12.182C6.66193 13.0259 7.80653 13.5 9 13.5C10.1935 13.5 11.3381 13.0259 12.182 12.182C13.0259 11.3381 13.5 10.1935 13.5 9C13.5 7.80653 13.0259 6.66193 12.182 5.81802C11.3381 4.97411 10.1935 4.5 9 4.5ZM9 7.5C9.39782 7.5 9.77936 7.65804 10.0607 7.93934C10.342 8.22065 10.5 8.60218 10.5 9C10.5 9.39783 10.342 9.77936 10.0607 10.0607C9.77936 10.342 9.39782 10.5 9 10.5C8.60218 10.5 8.22064 10.342 7.93934 10.0607C7.65804 9.77936 7.5 9.39783 7.5 9C7.5 8.60218 7.65804 8.22065 7.93934 7.93934C8.22064 7.65804 8.60218 7.5 9 7.5Z" fill="black"/>
</g>
<defs>
<clipPath id="clip0_9_49">
<rect width="18" height="18" fill="white"/>
</clipPath>
</defs>
</svg>
