<svg width="24" height="24" viewBox="0 0 24 24" fill="none" xmlns="http://www.w3.org/2000/svg">
<path d="M8.925 9.7L10.9 7.725C11.05 7.575 11.225 7.5 11.425 7.5C11.625 7.5 11.8 7.575 11.95 7.725C12.1 7.875 12.175 8.05433 12.175 8.263C12.175 8.47167 12.1 8.65067 11.95 8.8L9.45 11.3C9.3 11.45 9.125 11.525 8.925 11.525C8.725 11.525 8.55 11.45 8.4 11.3L7.05 9.95C6.9 9.8 6.825 9.621 6.825 9.413C6.825 9.205 6.9 9.02567 7.05 8.875C7.2 8.725 7.375 8.65 7.575 8.65C7.775 8.65 7.95 8.725 8.1 8.875L8.925 9.7ZM20.3 20.3C20.1167 20.4833 19.8833 20.575 19.6 20.575C19.3167 20.575 19.0833 20.4833 18.9 20.3L13.3 14.7C12.8 15.1 12.225 15.4167 11.575 15.65C10.925 15.8833 10.2333 16 9.5 16C7.68333 16 6.146 15.371 4.888 14.113C3.63 12.855 3.00067 11.3173 3 9.5C3 7.68333 3.62933 6.146 4.888 4.888C6.14667 3.63 7.684 3.00067 9.5 3C11.3167 3 12.854 3.62933 14.112 4.888C15.37 6.14667 15.9993 7.684 16 9.5C16 10.2333 15.8833 10.925 15.65 11.575C15.4167 12.225 15.1 12.8 14.7 13.3L20.3 18.9C20.4833 19.0833 20.575 19.3167 20.575 19.6C20.575 19.8833 20.4833 20.1167 20.3 20.3ZM9.5 14C10.75 14 11.8127 13.5627 12.688 12.688C13.5633 11.8133 14.0007 10.7507 14 9.5C14 8.25 13.5623 7.18733 12.687 6.312C11.8117 5.43667 10.7493 4.99933 9.5 5C8.25 5 7.18733 5.43767 6.312 6.313C5.43667 7.18833 4.99933 8.25067 5 9.5C5 10.75 5.43767 11.8127 6.313 12.688C7.18833 13.5633 8.25067 14.0007 9.5 14Z" fill="black"/>
</svg>
