<svg width="14" height="14" viewBox="0 0 14 14" fill="none" xmlns="http://www.w3.org/2000/svg">
<path d="M2.8 7.98764H8.4V6.65636H2.8V7.98764ZM2.8 5.99073H11.2V4.65945H2.8V5.99073ZM2.8 3.99382H11.2V2.66254H2.8V3.99382ZM0 13.3127V1.33127C0 0.965173 0.1372 0.65188 0.4116 0.391394C0.686 0.130908 1.01547 0.000443758 1.4 0H12.6C12.985 0 13.3147 0.130465 13.5891 0.391394C13.8635 0.652323 14.0005 0.965616 14 1.33127V9.31891C14 9.68501 13.8628 9.99852 13.5884 10.2595C13.314 10.5204 12.9845 10.6506 12.6 10.6502H2.8L0 13.3127ZM1.4 10.101L2.2225 9.31891H12.6V1.33127H1.4V10.101Z" fill="black" fill-opacity="0.6"/>
</svg>
